<svg xmlns="http://www.w3.org/2000/svg" width="1200" height="420" viewBox="0 0 1200 420" role="img" aria-labelledby="title description" focusable="false">
  <title id="title">Turn broad goals into bounded tests</title>
  <desc id="description">Ideas differ by mechanism, then pass an evidence and safety screen before ranking. The diagram shows Broad goal, Mechanism shifts, Screen, Design tests, Recommend.</desc>
  <metadata>Original vector artwork for the repository overview.</metadata>
  <defs>
    <marker id="arrow" markerWidth="9" markerHeight="9" refX="8" refY="4.5" orient="auto" markerUnits="strokeWidth">
      <path d="M0,0 L9,4.5 L0,9 Z" fill="#d29922"/>
    </marker>
  </defs>
  <rect width="1200" height="420" rx="20" fill="#0d1117"/>
  <rect x="1" y="1" width="1198" height="418" rx="19" fill="none" stroke="#30363d" stroke-width="2"/>
  <g font-family="Segoe UI, Arial, sans-serif">
    <text x="48" y="62" font-size="30" font-weight="750" fill="#f0f6fc">Turn broad goals into bounded tests</text>
    <text x="48" y="96" font-size="18" fill="#8b949e">Ideas differ by mechanism, then pass an evidence and safety screen before ranking.</text>
    <line x1="48" y1="126" x2="1152" y2="126" stroke="#21262d" stroke-width="2"/>
    <path d="M 256.6 236 H 263.6" fill="none" stroke="#d29922" stroke-width="3" marker-end="url(#arrow)"/>
    <g>
      <rect x="48.0" y="170" width="201.6" height="132" rx="14" fill="#161b22" stroke="#30363d" stroke-width="2"/>
      <rect x="48.0" y="170" width="201.6" height="5" rx="2.5" fill="#d29922"/>
      <text x="148.8" y="224" text-anchor="middle" font-size="19" font-weight="700" fill="#f0f6fc">Broad goal</text>
      <text x="148.8" y="258" text-anchor="middle" font-size="14" fill="#8b949e">Constraints and horizon</text>
      <circle cx="68.0" cy="190" r="4" fill="#d29922"/>
      <text x="231.6" y="195" text-anchor="end" font-size="12" font-weight="650" fill="#6e7681">01</text>
    </g>
<path d="M 482.20000000000005 236 H 489.20000000000005" fill="none" stroke="#d29922" stroke-width="3" marker-end="url(#arrow)"/>
    <g>
      <rect x="273.6" y="170" width="201.6" height="132" rx="14" fill="#161b22" stroke="#30363d" stroke-width="2"/>
      <rect x="273.6" y="170" width="201.6" height="5" rx="2.5" fill="#d29922"/>
      <text x="374.4" y="224" text-anchor="middle" font-size="19" font-weight="700" fill="#f0f6fc">Mechanism shifts</text>
      <text x="374.4" y="258" text-anchor="middle" font-size="14" fill="#8b949e">Distinct approaches</text>
      <circle cx="293.6" cy="190" r="4" fill="#d29922"/>
      <text x="457.2" y="195" text-anchor="end" font-size="12" font-weight="650" fill="#6e7681">02</text>
    </g>
<path d="M 707.8 236 H 714.8" fill="none" stroke="#d29922" stroke-width="3" marker-end="url(#arrow)"/>
    <g>
      <rect x="499.2" y="170" width="201.6" height="132" rx="14" fill="#161b22" stroke="#30363d" stroke-width="2"/>
      <rect x="499.2" y="170" width="201.6" height="5" rx="2.5" fill="#d29922"/>
      <text x="600.0" y="224" text-anchor="middle" font-size="19" font-weight="700" fill="#f0f6fc">Screen</text>
      <text x="600.0" y="258" text-anchor="middle" font-size="14" fill="#8b949e">Evidence, risk, fit</text>
      <circle cx="519.2" cy="190" r="4" fill="#d29922"/>
      <text x="682.8" y="195" text-anchor="end" font-size="12" font-weight="650" fill="#6e7681">03</text>
    </g>
<path d="M 933.4 236 H 940.4" fill="none" stroke="#d29922" stroke-width="3" marker-end="url(#arrow)"/>
    <g>
      <rect x="724.8" y="170" width="201.6" height="132" rx="14" fill="#161b22" stroke="#30363d" stroke-width="2"/>
      <rect x="724.8" y="170" width="201.6" height="5" rx="2.5" fill="#d29922"/>
      <text x="825.6" y="224" text-anchor="middle" font-size="19" font-weight="700" fill="#f0f6fc">Design tests</text>
      <text x="825.6" y="258" text-anchor="middle" font-size="14" fill="#8b949e">Start within 48 hours</text>
      <circle cx="744.8" cy="190" r="4" fill="#d29922"/>
      <text x="908.4" y="195" text-anchor="end" font-size="12" font-weight="650" fill="#6e7681">04</text>
    </g>

    <g>
      <rect x="950.4" y="170" width="201.6" height="132" rx="14" fill="#161b22" stroke="#30363d" stroke-width="2"/>
      <rect x="950.4" y="170" width="201.6" height="5" rx="2.5" fill="#d29922"/>
      <text x="1051.2" y="224" text-anchor="middle" font-size="19" font-weight="700" fill="#f0f6fc">Recommend</text>
      <text x="1051.2" y="258" text-anchor="middle" font-size="14" fill="#8b949e">One prioritized move</text>
      <circle cx="970.4" cy="190" r="4" fill="#d29922"/>
      <text x="1134.0" y="195" text-anchor="end" font-size="12" font-weight="650" fill="#6e7681">05</text>
    </g>
    <line x1="48" y1="342" x2="1152" y2="342" stroke="#21262d" stroke-width="2"/>
    <text x="600" y="380" text-anchor="middle" font-size="14" font-weight="600" fill="#8b949e">Practical range  •  explicit assumptions  •  bounded experiments</text>
  </g>
</svg>
